<?xml version="1.0" encoding="UTF-8"?>
<!DOCTYPE svg PUBLIC "-//W3C//DTD SVG 1.1//EN" "http://www.w3.org/Graphics/SVG/1.1/DTD/svg11.dtd">
<svg xmlns="http://www.w3.org/2000/svg" version="1.1" width="1333px" height="1067px" style="shape-rendering:geometricPrecision; text-rendering:geometricPrecision; image-rendering:optimizeQuality; fill-rule:evenodd; clip-rule:evenodd" xmlns:xlink="http://www.w3.org/1999/xlink">
<g><path style="opacity:0.993" fill="#1f1817" d="M 667.5,223.5 C 667.5,224.167 667.5,224.833 667.5,225.5C 642.092,235.018 621.259,251.018 605,273.5C 592.655,285.852 579.155,296.686 564.5,306C 561.076,308.38 558.076,311.213 555.5,314.5C 555.833,314.833 556.167,315.167 556.5,315.5C 569.071,310.55 580.738,304.05 591.5,296C 592.759,295.018 594.092,294.685 595.5,295C 585.362,304.774 577.862,316.274 573,329.5C 571.987,333.744 572.82,337.577 575.5,341C 583.245,344.082 589.078,349.249 593,356.5C 596.761,371.729 600.094,387.063 603,402.5C 606.51,412.522 610.843,422.188 616,431.5C 623.087,457.032 625.42,483.032 623,509.5C 621.975,531.662 617.308,552.996 609,573.5C 601.651,588.198 594.318,602.864 587,617.5C 585.199,621.691 584.533,626.025 585,630.5C 589.249,635.744 594.416,639.911 600.5,643C 613.411,649.29 626.411,655.29 639.5,661C 625.177,658.478 610.844,658.478 596.5,661C 589.552,662.381 584.052,665.881 580,671.5C 578.959,674.636 579.793,677.136 582.5,679C 600.329,681.158 604.162,689.658 594,704.5C 593.333,707.167 593.333,709.833 594,712.5C 598.037,717.102 602.871,720.602 608.5,723C 624.423,729.085 640.756,733.752 657.5,737C 633.696,739.133 610.363,736.799 587.5,730C 566.554,722.931 557.054,708.431 559,686.5C 560.634,670.332 563.3,654.332 567,638.5C 570.062,615.059 567.062,592.393 558,570.5C 554.672,557.206 552.839,543.706 552.5,530C 554.082,512.526 554.582,495.026 554,477.5C 547.706,458.502 546.04,439.169 549,419.5C 549.333,420.167 549.667,420.833 550,421.5C 550.5,411.667 555.667,406.5 565.5,406C 559.082,398.9 551.582,393.4 543,389.5C 518.452,395.055 493.619,397.889 468.5,398C 432.176,378.351 417.176,348.017 423.5,307C 447.51,297.049 471.844,296.049 496.5,304C 504.5,307.333 512.5,310.667 520.5,314C 523.594,314.652 526.594,314.318 529.5,313C 533.759,311.066 537.759,308.732 541.5,306C 549.212,299.286 557.212,292.953 565.5,287C 579.59,282.381 591.09,274.214 600,262.5C 608.191,245.974 621.024,234.807 638.5,229C 647.965,226.089 657.632,224.256 667.5,223.5 Z M 576.5,427.5 C 578.943,432.133 580.11,437.133 580,442.5C 574.146,440.771 568.646,438.271 563.5,435C 569.436,434.992 573.77,432.492 576.5,427.5 Z"/></g>
<g><path style="opacity:0.993" fill="#1f1817" d="M 667.5,223.5 C 682.785,225.069 697.119,229.569 710.5,237C 719.111,244.278 726.277,252.778 732,262.5C 740.91,274.214 752.41,282.381 766.5,287C 774.788,292.953 782.788,299.286 790.5,306C 794.241,308.732 798.241,311.066 802.5,313C 805.406,314.318 808.406,314.652 811.5,314C 823.996,307.918 836.996,303.252 850.5,300C 870.451,296.992 889.784,299.326 908.5,307C 914.823,348.02 899.823,378.353 863.5,398C 838.381,397.889 813.548,395.055 789,389.5C 780.418,393.4 772.918,398.9 766.5,406C 777.185,405.751 783.019,410.918 784,421.5C 785.782,440.579 783.782,459.246 778,477.5C 777.418,495.026 777.918,512.526 779.5,530C 778.749,551.837 774.582,573.004 767,593.5C 764.92,602.717 763.754,612.051 763.5,621.5C 766.469,643.181 769.636,664.848 773,686.5C 774.946,708.431 765.446,722.931 744.5,730C 721.64,736.799 698.306,739.132 674.5,737C 694.868,733.655 714.202,727.321 732.5,718C 738.632,713.837 740.132,708.337 737,701.5C 730.842,694.781 731.008,688.281 737.5,682C 741.535,681.126 745.535,680.126 749.5,679C 753.534,674.781 753.201,670.781 748.5,667C 738.83,661.263 728.33,658.43 717,658.5C 708.766,659.36 700.599,660.193 692.5,661C 705.589,655.29 718.589,649.29 731.5,643C 737.584,639.911 742.751,635.744 747,630.5C 747.467,626.025 746.801,621.691 745,617.5C 737.682,602.864 730.349,588.198 723,573.5C 714.636,553.349 709.969,532.349 709,510.5C 707.407,487.309 708.74,464.309 713,441.5C 714,438.167 715,434.833 716,431.5C 721.157,422.188 725.49,412.522 729,402.5C 731.906,387.063 735.239,371.729 739,356.5C 742.801,349.161 748.635,343.994 756.5,341C 759.18,337.577 760.013,333.744 759,329.5C 754.138,316.274 746.638,304.774 736.5,295C 737.908,294.685 739.241,295.018 740.5,296C 751.262,304.05 762.929,310.55 775.5,315.5C 775.833,315.167 776.167,314.833 776.5,314.5C 773.924,311.213 770.924,308.38 767.5,306C 757.5,298.667 747.5,291.333 737.5,284C 727.4,272.477 717.067,261.144 706.5,250C 694.483,240.322 681.483,232.155 667.5,225.5C 667.5,224.833 667.5,224.167 667.5,223.5 Z M 754.5,425.5 C 757.644,430.795 762.311,433.962 768.5,435C 763.354,438.271 757.854,440.771 752,442.5C 752.222,436.782 753.055,431.115 754.5,425.5 Z"/></g>
<g><path style="opacity:0.993" fill="#1f1817" d="M 792.5,519.5 C 802.989,550.46 813.822,581.46 825,612.5C 833.009,634.88 838.343,657.88 841,681.5C 844.181,706.915 839.848,730.915 828,753.5C 811.225,781.617 790.725,806.784 766.5,829C 758.722,835.945 749.722,840.445 739.5,842.5C 748.34,825.812 755.84,808.479 762,790.5C 769.281,771.704 762.948,763.038 743,764.5C 728.698,764.995 714.698,767.328 701,771.5C 700.5,771.167 700,770.833 699.5,770.5C 705.975,761.525 712.641,752.692 719.5,744C 738.392,745.276 755.725,740.61 771.5,730C 783.598,718.893 789.598,705.06 789.5,688.5C 786.347,669.218 783.513,649.885 781,630.5C 778.994,592.886 782.827,555.886 792.5,519.5 Z"/></g>
<g><path style="opacity:0.993" fill="#1f1817" d="M 539.5,519.5 C 540.966,520.347 541.8,521.68 542,523.5C 551.865,561.278 555.198,599.612 552,638.5C 548.932,654.93 546.432,671.43 544.5,688C 546.063,719.902 562.729,738.236 594.5,743C 601.222,743.887 607.889,744.221 614.5,744C 621.167,753 627.833,762 634.5,771C 625.883,769.477 617.217,767.811 608.5,766C 598.874,764.547 589.207,764.214 579.5,765C 572.232,766.095 568.899,770.261 569.5,777.5C 570.939,788.984 574.105,799.984 579,810.5C 583.639,821.112 588.806,831.446 594.5,841.5C 588.83,841.785 583.497,840.285 578.5,837C 563.779,826.616 550.612,814.45 539,800.5C 524.041,782.531 511.041,763.197 500,742.5C 494.432,728.027 491.599,713.027 491.5,697.5C 492.886,671.183 497.72,645.516 506,620.5C 518.471,587.255 529.637,553.588 539.5,519.5 Z"/></g>
</svg>
