<?xml version="1.0" encoding="UTF-8"?>
<!DOCTYPE svg PUBLIC "-//W3C//DTD SVG 1.1//EN" "http://www.w3.org/Graphics/SVG/1.1/DTD/svg11.dtd">
<svg xmlns="http://www.w3.org/2000/svg" version="1.1" width="1000px" height="374px" style="shape-rendering:geometricPrecision; text-rendering:geometricPrecision; image-rendering:optimizeQuality; fill-rule:evenodd; clip-rule:evenodd" xmlns:xlink="http://www.w3.org/1999/xlink">
<g><path style="opacity:1" fill="#fefefe" d="M 152.5,-0.5 C 165.5,-0.5 178.5,-0.5 191.5,-0.5C 204.939,7.44011 215.105,18.4401 222,32.5C 225.446,41.1695 228.279,50.0028 230.5,59C 244.101,62.8673 257.435,67.534 270.5,73C 285.583,78.4711 300.916,79.4711 316.5,76C 325.005,72.8745 333.671,70.3745 342.5,68.5C 361.915,68.9138 372.582,78.9138 374.5,98.5C 372.232,117.274 361.898,129.108 343.5,134C 336.885,135.108 330.218,135.775 323.5,136C 323.043,136.414 322.709,136.914 322.5,137.5C 332.647,158.72 337.647,180.72 337.5,203.5C 348.958,210.79 357.791,220.457 364,232.5C 367.301,244.153 367.301,255.82 364,267.5C 358,282.176 349.5,295.176 338.5,306.5C 294.609,347.313 242.609,369.646 182.5,373.5C 182.167,373.5 181.833,373.5 181.5,373.5C 161.567,373.432 143.234,367.932 126.5,357C 117.161,348.653 111.494,338.319 109.5,326C 109.551,317.454 109.717,308.62 110,299.5C 93.638,285.109 81.4713,267.775 73.5,247.5C 72.635,246.417 71.635,246.251 70.5,247C 60.4344,258.733 47.7678,265.233 32.5,266.5C 15.9489,265.26 4.94885,256.927 -0.5,241.5C -0.5,237.833 -0.5,234.167 -0.5,230.5C 1.39883,224.215 4.73216,218.715 9.5,214C 17.9941,207.583 26.9941,201.917 36.5,197C 48.3677,187.123 57.201,174.956 63,160.5C 67.4332,148.849 72.4332,137.515 78,126.5C 78.6667,125.167 78.6667,123.833 78,122.5C 57.4996,95.9497 54.833,67.9497 70,38.5C 73.5517,32.6074 78.5517,28.6074 85,26.5C 88.7671,26.5208 91.4337,28.1874 93,31.5C 92.1221,48.2271 97.2888,62.7271 108.5,75C 113.021,79.0223 117.688,82.8556 122.5,86.5C 138.941,79.0736 155.441,71.7402 172,64.5C 175.304,48.3356 172.638,33.0022 164,18.5C 161.333,14.5 158,11.1667 154,8.5C 151.674,5.72272 151.174,2.72272 152.5,-0.5 Z M 161.5,0.5 C 195.557,4.22823 215.224,22.8949 220.5,56.5C 215.584,57.0835 210.584,57.0835 205.5,56.5C 197.948,57.4532 190.448,58.7866 183,60.5C 182.5,60.1667 182,59.8333 181.5,59.5C 180.83,55.4929 180.83,51.3262 181.5,47C 180.468,30.0181 173.801,15.8514 161.5,4.5C 160.193,3.13497 160.193,1.80163 161.5,0.5 Z M 83.5,34.5 C 84.1174,34.6107 84.6174,34.944 85,35.5C 85.5122,47.552 88.5122,58.8853 94,69.5C 99.8382,76.6694 106.005,83.5028 112.5,90C 102.077,97.587 92.4099,106.087 83.5,115.5C 65.6121,94.1722 62.7787,70.8389 75,45.5C 77.3582,41.442 80.1916,37.7754 83.5,34.5 Z M 201.5,64.5 C 206.328,64.3852 207.661,66.5519 205.5,71C 206.681,81.5246 212.348,88.5246 222.5,92C 238.321,97.5458 251.655,94.0458 262.5,81.5C 270.006,85.9993 276.84,91.3327 283,97.5C 296.07,111.998 307.403,127.665 317,144.5C 325.689,162.596 329.189,181.429 327.5,201C 295.168,195.695 263.168,198.361 231.5,209C 216.452,214.012 201.952,220.178 188,227.5C 180.01,215.83 170.844,204.996 160.5,195C 139.67,180.433 117.004,176.433 92.5,183C 85.7424,184.918 79.2424,187.418 73,190.5C 72.228,190.355 71.5613,190.022 71,189.5C 69.7816,155.453 81.6149,126.953 106.5,104C 113.481,99.5064 120.815,95.5064 128.5,92C 143.833,85.3333 159.167,78.6667 174.5,72C 183.328,68.3799 192.328,65.8799 201.5,64.5 Z M 345.5,76.5 C 352.811,76.4149 358.478,79.2482 362.5,85C 361.056,87.4485 359.222,89.6152 357,91.5C 353.917,99.0716 355.583,105.405 362,110.5C 362.667,111.5 362.667,112.5 362,113.5C 358.535,117.965 354.202,121.298 349,123.5C 346.735,121.833 344.569,120 342.5,118C 331.842,112.995 324.509,115.995 320.5,127C 318.711,127.52 317.044,127.187 315.5,126C 305.781,112.109 295.114,98.9425 283.5,86.5C 284,85.1195 285,84.4528 286.5,84.5C 295.139,85.2768 303.805,85.7768 312.5,86C 317.453,93.6402 324.453,96.6402 333.5,95C 336.242,93.9296 338.742,92.4296 341,90.5C 343.416,86.0872 344.916,81.4206 345.5,76.5 Z M 60.5,182.5 C 62.0257,183.105 63.0257,184.271 63.5,186C 62.9529,196.72 64.2863,207.553 67.5,218.5C 67.2907,219.086 66.9574,219.586 66.5,220C 72.2158,230.075 70.3824,238.242 61,244.5C 53.9224,234.877 44.7557,232.043 33.5,236C 26.5035,240.152 22.6702,246.319 22,254.5C 20.4931,255.535 18.9931,255.368 17.5,254C 3.60795,241.985 3.60795,229.818 17.5,217.5C 21.2031,219.271 25.0364,220.604 29,221.5C 33.7914,221.569 37.4581,219.569 40,215.5C 42.1055,210.906 43.1055,206.239 43,201.5C 49.7532,195.977 55.5866,189.643 60.5,182.5 Z M 287.5,205.5 C 296.563,205.699 306.23,206.532 316.5,208C 355.266,216.706 367.099,239.206 352,275.5C 338.5,297 321,314.5 299.5,328C 264.288,350.269 225.788,362.769 184,365.5C 167.046,365.555 150.879,361.721 135.5,354C 119.72,342.157 114.553,326.657 120,307.5C 127.627,289.398 138.794,273.898 153.5,261C 192.507,229.001 237.173,210.501 287.5,205.5 Z M 132.5,219.5 C 143.146,217.984 149.479,222.484 151.5,233C 148.749,245.376 141.416,249.376 129.5,245C 120.826,235.23 121.826,226.73 132.5,219.5 Z M 277.5,252.5 C 284.563,255.253 289.397,260.253 292,267.5C 292.956,271.981 293.789,276.481 294.5,281C 293.196,288.319 289.196,290.319 282.5,287C 273.205,278.285 269.871,267.785 272.5,255.5C 274.145,254.304 275.811,253.304 277.5,252.5 Z M 189.5,290.5 C 192.32,290.248 194.986,290.748 197.5,292C 206.999,300.813 210.166,311.313 207,323.5C 205.846,324.743 204.512,325.743 203,326.5C 191.994,321.532 186.161,312.865 185.5,300.5C 185.095,296.366 186.428,293.033 189.5,290.5 Z"/></g>
<g><path style="opacity:0.929" fill="#fefefe" d="M 695.5,147.5 C 696.376,147.369 697.043,147.702 697.5,148.5C 695.726,151.715 694.226,155.048 693,158.5C 691.185,169.208 689.185,179.874 687,190.5C 683.134,179.983 676.967,171.149 668.5,164C 658.515,159.899 651.015,162.732 646,172.5C 643.951,179.012 642.784,185.679 642.5,192.5C 654.727,193.967 664.227,189.634 671,179.5C 670.019,191.052 667.852,202.385 664.5,213.5C 659.203,205.85 651.869,201.85 642.5,201.5C 641.055,215.885 643.555,229.551 650,242.5C 651.812,245.28 653.979,247.78 656.5,250C 651.687,250.07 646.853,249.904 642,249.5C 633.713,249.975 625.546,250.809 617.5,252C 624.083,245.189 626.749,237.022 625.5,227.5C 624.875,207.491 624.041,187.491 623,167.5C 621.763,162.527 619.596,158.027 616.5,154C 643.253,155.526 669.586,153.359 695.5,147.5 Z"/></g>
<g><path style="opacity:0.947" fill="#fefefe" d="M 416.5,150.5 C 427.654,149.505 438.988,149.172 450.5,149.5C 451.741,155.326 453.575,160.993 456,166.5C 460.622,177.041 465.622,187.374 471,197.5C 476.394,183.922 480.228,169.922 482.5,155.5C 498.184,154.845 513.85,154.345 529.5,154C 525.908,156.921 523.075,160.421 521,164.5C 519.462,185.141 519.129,205.808 520,226.5C 520.054,229.861 521.054,232.861 523,235.5C 526.167,240 530,243.833 534.5,247C 518.325,247.769 502.158,248.603 486,249.5C 484.833,249.167 483.667,248.833 482.5,248.5C 485.195,244.97 487.695,241.304 490,237.5C 491.092,234.956 491.759,232.289 492,229.5C 493.399,213.188 493.733,196.854 493,180.5C 484.633,197.575 477.633,215.242 472,233.5C 469.959,234.423 467.792,234.756 465.5,234.5C 462.751,218 456.918,202.667 448,188.5C 445.707,202.801 445.374,217.134 447,231.5C 450.5,238.507 455,244.84 460.5,250.5C 443.806,251.375 427.14,252.209 410.5,253C 418.682,248.154 422.515,240.987 422,231.5C 423.379,207.18 423.712,182.847 423,158.5C 421.726,155.064 419.559,152.397 416.5,150.5 Z"/></g>
<g><path style="opacity:1" fill="#fefefe" d="M 266.5,164.5 C 274.445,163.611 279.112,167.111 280.5,175C 280.129,181.704 276.629,185.538 270,186.5C 259.757,184.286 256.591,178.286 260.5,168.5C 262.29,166.684 264.29,165.351 266.5,164.5 Z"/></g>
<g><path style="opacity:0.926" fill="#fefefe" d="M 719.5,169.5 C 730.395,168.202 739.562,171.536 747,179.5C 749.133,183.232 750.466,187.232 751,191.5C 751.816,201.867 752.816,212.201 754,222.5C 756.581,228.378 761.081,231.712 767.5,232.5C 766.52,237.804 764.02,242.138 760,245.5C 753.519,243.353 748.519,239.353 745,233.5C 732.112,249.078 716.612,252.245 698.5,243C 690.998,236.815 688.498,228.981 691,219.5C 693.573,211.261 699.073,206.095 707.5,204C 714.11,202.559 720.776,202.226 727.5,203C 730.656,203.937 733.489,205.437 736,207.5C 736.711,200.785 736.378,194.118 735,187.5C 732.518,182.009 728.351,179.843 722.5,181C 716.938,186.163 717.271,190.829 723.5,195C 713.911,196.989 704.244,198.322 694.5,199C 695.88,197.075 697.38,195.241 699,193.5C 699.985,180.358 706.818,172.358 719.5,169.5 Z M 717.5,211.5 C 723.279,210.708 728.446,212.041 733,215.5C 733.85,226.166 729.017,232.833 718.5,235.5C 707.284,233.666 704.117,227.666 709,217.5C 711.322,214.605 714.155,212.605 717.5,211.5 Z"/></g>
<g><path style="opacity:0.932" fill="#fefefe" d="M 526.5,178.5 C 536.598,179.463 546.598,179.797 556.5,179.5C 552.389,190.83 550.889,202.497 552,214.5C 554.286,225.869 561.119,231.369 572.5,231C 578.352,227.139 581.519,221.639 582,214.5C 584.045,201.855 581.878,190.022 575.5,179C 585.505,179.7 595.505,179.533 605.5,178.5C 606.416,197.987 607.083,217.487 607.5,237C 607.585,245.55 607.085,254.05 606,262.5C 599.905,275.721 589.571,283.055 575,284.5C 568.277,283.889 561.777,282.389 555.5,280C 552.018,276.582 549.852,272.415 549,267.5C 545.642,264.642 542.142,261.975 538.5,259.5C 548.496,258.055 558.496,257.722 568.5,258.5C 565.483,263.251 566.15,267.417 570.5,271C 582.175,274.03 589.342,269.53 592,257.5C 594.443,247.591 594.943,237.591 593.5,227.5C 581.948,246.718 566.281,250.884 546.5,240C 543.117,236.731 540.617,232.897 539,228.5C 537.779,216.881 537.112,205.215 537,193.5C 536.529,191.754 535.862,190.087 535,188.5C 532.25,184.931 529.416,181.597 526.5,178.5 Z"/></g>
<g><path style="opacity:0.923" fill="#fefefe" d="M 856.5,179.5 C 857.327,184.651 857.827,189.984 858,195.5C 868.814,183.675 881.314,181.508 895.5,189C 897.452,191.074 899.285,193.241 901,195.5C 909.364,186.826 919.53,182.659 931.5,183C 946.298,186.465 952.798,195.631 951,210.5C 948.88,218.424 947.547,226.424 947,234.5C 950.546,239.713 955.046,243.88 960.5,247C 948.326,247.101 936.326,246.101 924.5,244C 926.667,243.167 928.167,241.667 929,239.5C 930.981,225.158 930.981,210.825 929,196.5C 923.925,193.653 919.092,194.153 914.5,198C 910.761,201.617 906.928,205.117 903,208.5C 901.294,219.501 901.128,230.501 902.5,241.5C 901.333,241.833 900.167,242.167 899,242.5C 892.518,241.854 886.018,241.687 879.5,242C 881.041,240.421 882.208,238.587 883,236.5C 885.192,225.089 884.859,213.755 882,202.5C 880.818,199.477 878.651,197.811 875.5,197.5C 867.422,198.619 861.255,202.619 857,209.5C 856.333,219.833 856.333,230.167 857,240.5C 858.559,242.217 859.392,244.217 859.5,246.5C 851.69,246.108 844.023,245.275 836.5,244C 838.667,243.167 840.167,241.667 841,239.5C 842.305,227.204 843.138,214.871 843.5,202.5C 845.849,193.694 842.849,187.861 834.5,185C 841.965,183.482 849.298,181.649 856.5,179.5 Z"/></g>
<g><path style="opacity:0.924" fill="#fefefe" d="M 786.5,180.5 C 787.5,180.5 788.5,180.5 789.5,180.5C 787.709,186.037 787.209,191.704 788,197.5C 795.056,191.389 802.556,185.889 810.5,181C 821.72,179.872 827.887,185.039 829,196.5C 830.188,202.778 830.688,209.112 830.5,215.5C 821.293,216.171 812.126,217.171 803,218.5C 801.743,218.15 801.409,217.483 802,216.5C 806.469,213.378 809.302,209.212 810.5,204C 808.13,198.408 804.13,196.741 798.5,199C 795.37,201.128 792.537,203.628 790,206.5C 789.291,217.529 789.624,228.529 791,239.5C 793.294,244.579 796.461,249.079 800.5,253C 790.442,253.447 780.442,254.114 770.5,255C 772.2,251.709 773.367,248.209 774,244.5C 774.602,227.736 773.602,211.069 771,194.5C 769.46,190.581 767.293,187.081 764.5,184C 772.121,183.785 779.454,182.618 786.5,180.5 Z"/></g>
<g><path style="opacity:1" fill="#fefefe" d="M 272.5,245.5 C 277.412,245.063 282.078,245.896 286.5,248C 298.686,258.803 303.52,271.97 301,287.5C 295.067,297.143 287.233,298.976 277.5,293C 266.356,282.881 261.856,270.381 264,255.5C 265.708,251.006 268.541,247.672 272.5,245.5 Z M 277.5,252.5 C 275.811,253.304 274.145,254.304 272.5,255.5C 269.871,267.785 273.205,278.285 282.5,287C 289.196,290.319 293.196,288.319 294.5,281C 293.789,276.481 292.956,271.981 292,267.5C 289.397,260.253 284.563,255.253 277.5,252.5 Z"/></g>
<g><path style="opacity:1" fill="#fefefe" d="M 188.5,282.5 C 194.168,281.997 199.168,283.497 203.5,287C 215.731,298.427 219.231,311.927 214,327.5C 205.427,335.553 196.927,335.386 188.5,327C 182.1,319.137 178.433,310.137 177.5,300C 177.389,291.643 181.055,285.81 188.5,282.5 Z M 189.5,290.5 C 186.428,293.033 185.095,296.366 185.5,300.5C 186.161,312.865 191.994,321.532 203,326.5C 204.512,325.743 205.846,324.743 207,323.5C 210.166,311.313 206.999,300.813 197.5,292C 194.986,290.748 192.32,290.248 189.5,290.5 Z"/></g>
</svg>
